# AST/ASF file generated using VICON BodyLanguage
# -----------------------------------------------
:version 1.10
:name VICON
:units
  mass 1.0
  length 0.45
  angle deg
:documentation
   .ast/.asf automatically generated from VICON data using
   VICON BodyBuilder and BodyLanguage model FoxedUp or BRILLIANT.MOD
:root
   order TX TY TZ RX RY RZ
   axis XYZ
   position 0 0 0  
   orientation 0 0 0 
:bonedata
  begin
     id 1 
     name lhipjoint
     direction 0.589753 -0.68606 0.426044 
     length 2.54082 
     axis 0 0 0  XYZ
  end
  begin
     id 2 
     name lfemur
     direction 0.34202 -0.939693 0  
     length 7.04539  
     axis 0 0 20  XYZ
    dof rx ry rz
    limits (-160.0 20.0)
           (-70.0 70.0)
           (-60.0 70.0)
  end
  begin
     id 3 
     name ltibia
     direction 0.34202 -0.939693 0   
     length 7.83772   
     axis 0 0 20   XYZ
    dof rx
    limits (-10.0 170.0)
  end
  begin
     id 4 
     name lfoot
     direction 0.0596604 -0.163915 0.984669   
     length 2.39542   
     axis -90 7.62852e-016 20   XYZ
    dof rx rz
    limits (-45.0 90.0)
           (-70.0 20.0)
  end
  begin
     id 5 
     name ltoes
     direction 1.53514e-011 -4.21954e-011 1   
     length 1.2047   
     axis -90 7.62852e-016 20   XYZ
    dof rx
    limits (-90.0 20.0)
  end
  begin
     id 6 
     name rhipjoint
     direction -0.580585 -0.69168 0.429534   
     length 2.52018  
     axis 0 0 0  XYZ 
  end
  begin
     id 7 
     name rfemur
     direction -0.34202 -0.939693 0   
     length 7.0101   
     axis 0 0 -20   XYZ
    dof rx ry rz
    limits (-160.0 20.0)
           (-70.0 70.0)
           (-70.0 60.0)
  end
  begin
     id 8 
     name rtibia
     direction -0.34202 -0.939693 0   
     length 7.70628   
     axis 0 0 -20   XYZ
    dof rx
    limits (-10.0 170.0)
 end
 begin
     id 9 
     name rfoot
     direction -0.0696237 -0.19129 0.979061   
     length 2.52466  
     axis -90 -7.62852e-016 -20   XYZ
    dof rx rz
    limits (-45.0 90.0)
           (-20.0 70.0)
  end
  begin
     id 10 
     name rtoes
     direction -1.53519e-011 -4.21793e-011 1   
     length 1.266   
     axis -90 -7.62852e-016 -20   XYZ
    dof rx
    limits (-90.0 20.0)
  end
  begin
     id 11 
     name lowerback
     direction 0.00381965 0.995707 -0.0924856   
     length 2.20825   
     axis 0 0 0   XYZ
    dof rx ry rz
    limits (-20.0 45.0)
           (-30.0 30.0)
           (-30.0 30.0)
  end
  begin
     id 12 
     name upperback
     direction -0.0139043 0.999634 -0.0231929   
     length 2.21517   
     axis 0 0 0   XYZ
    dof rx ry rz
    limits (-20.0 45.0)
           (-30.0 30.0)
           (-30.0 30.0)
  end
  begin
     id 13 
     name thorax
     direction -0.0143933 0.999691 0.0202892   
     length 2.22911   
     axis 0 0 0   XYZ
    dof rx ry rz
    limits (-20.0 45.0)
           (-30.0 30.0)
           (-30.0 30.0)
  end
  begin
     id 14 
     name lowerneck
     direction -0.0251153 0.981819 0.188153   
     length 1.61782   
     axis 0 0 0   XYZ
    dof rx ry rz
    limits (-20.0 45.0)
           (-30.0 30.0)
           (-30.0 30.0)
  end
  begin
     id 15 
     name upperneck
     direction 0.0563891 0.969357 -0.239095   
     length 1.64526   
     axis 0 0 0   XYZ
    dof rx ry rz
    limits (-20.0 45.0)
           (-30.0 30.0)
           (-30.0 30.0)
  end
  begin
     id 16
     name head
     direction 0.0208328 0.99459 -0.101773  
     length 1.67436  
     axis 0 0 0   XYZ
    dof rx ry rz
    limits (-20.0 45.0)
           (-30.0 30.0)
           (-30.0 30.0)
  end
  begin
     id 17 
     name lclavicle
     direction 0.917689 0.397224 0.00772059  
     length 3.31102  
     axis 0 0 0   XYZ
    dof ry rz
    limits (-20.0 10.0)
           (0.0 20.0)
  end
  begin
     id 18 
     name lhumerus
     direction 1 -4.4896e-011 2.32308e-027   
     length 5.25537   
     axis 180 -30 -90   XYZ
    dof rx ry rz
    limits (-60.0 90.0)
           (-90.0 90.0)
           (-90.0 90.0)
  end
  begin
     id 19
     name lradius
     direction 1 -4.49005e-011 -2.04271e-027   
     length 3.38855   
     axis 180 -30 -90   XYZ
    dof rx
    limits (-10.0 170.0)
  end
  begin
     id 20
     name lwrist
     direction 1 -4.48892e-011 2.56952e-028   
     length 1.69428   
     axis -5.12785e-016 90 90   XYZ
    dof ry
    limits (-180.0 0.0)
 end
  begin
     id 21 
     name lhand
     direction 1 -4.48966e-011 5.13905e-028   
     length 0.614516   
     axis -3.27915e-016 90 90   XYZ
    dof rx rz
    limits (-90.0 90.0)
           (-45.0 45.0)
  end
  begin
     id 22 
     name lfingers
     direction 1 -4.48979e-011 1.02781e-027   
     length 0.495439   
     axis -6.5583e-016 90 90   XYZ
    dof rx
    limits (0.0 90.0)
  end
  begin
     id 23
     name lthumb
     direction 0.707107 -6.35001e-011 0.707107   
     length 0.711354   
     axis -90 45 2.85299e-015   XYZ
    dof rx rz
    limits (-45.0 45.0)
           (-45.0 45.0)
  end
  begin
     id 24 
     name rclavicle
     direction -0.938556 0.342765 -0.0403177   
     length 3.27019  
     axis 0 0 0   XYZ 
    dof ry rz
    limits (-10.0 20.0)
           (-20.0 0.0)
  end
  begin
     id 25 
     name rhumerus
     direction -1 -4.48966e-011 2.52291e-027  
     length 5.38183   
     axis 180 30 90   XYZ
    dof rx ry rz
    limits (-90.0 60.0)
           (-90.0 90.0)
           (-90.0 90.0)
  end
  begin
     id 26 
     name rradius
     direction -1 -4.4896e-011 1.5797e-027   
     length 3.16988   
     axis 180 30 90   XYZ
    dof rx
    limits (-10.0 170.0)
  end
  begin
     id 27 
     name rwrist
     direction -1 -4.48947e-011 2.56952e-028   
     length 1.58494   
     axis -5.12785e-016 -90 -90   XYZ
    dof ry
    limits (-180.0 0.0)
  end
  begin
     id 28
     name rhand
     direction -1 -4.49098e-011 5.13905e-028   
     length 0.637679   
     axis -3.27915e-016 -90 -90   XYZ
    dof rx rz
    limits (-90.0 90.0)
           (-45.0 45.0)
  end
  begin
     id 29
     name rfingers
     direction -1 -4.49026e-011 1.02781e-027   
     length 0.514113   
     axis -6.5583e-016 -90 -90   XYZ
    dof rx
    limits (0.0 90.0)
  end
  begin
     id 30
     name rthumb
     direction -0.707107 -6.3491e-011 0.707107   
     length 0.738167   
     axis -90 -45 -2.85299e-015   XYZ
    dof rx rz
    limits (-45.0 45.0)
           (-45.0 45.0)
  end
:hierarchy
  begin
    root lhipjoint rhipjoint lowerback
    lhipjoint lfemur
    lfemur ltibia
    ltibia lfoot
    lfoot ltoes
    rhipjoint rfemur
    rfemur rtibia
    rtibia rfoot
    rfoot rtoes
    lowerback upperback
    upperback thorax
    thorax lowerneck lclavicle rclavicle
    lowerneck upperneck
    upperneck head
    lclavicle lhumerus
    lhumerus lradius
    lradius lwrist
    lwrist lhand lthumb
    lhand lfingers
    rclavicle rhumerus
    rhumerus rradius
    rradius rwrist
    rwrist rhand rthumb
    rhand rfingers
  end

#!OML:ASF H:\Swim\Project 1\Capture day 1\Session 1\swimmer.ASF
:FULLY-SPECIFIED
:DEGREES
2290
root 6.30898 11.7819 21.4013 88.1145 -8.94194 -9.97682
lowerback 6.31477 -10.2386 -2.99992
upperback -6.50481 -14.713 -2.26632
thorax -10.3366 -7.09182 1.40821
lowerneck -23.031 4.96787 -9.98519
upperneck 10.7254 7.48522 15.6083
head 5.99037 4.70242 7.61564
rclavicle 2.8625e-014 -3.18055e-015
rhumerus 323.288 9.06712 348.315
rradius 136.115
rwrist -32.3309
rhand 15.5826 -5.2396
rfingers 7.12502
rthumb 40.3997 -390.344
lclavicle 2.8625e-014 -3.18055e-015
lhumerus 41.3545 10.061 -3.62291
lradius 26.1528
lwrist -1.34186
lhand -21.8999 -694.118
lfingers 7.12502
lthumb 4.50547 55.8138
rfemur -16.4231 8.7999 21.0754
rtibia 40.5091
rfoot 3.68622 1.08701
rtoes -6.56541
lfemur -14.3747 -6.88414 -23.7812
ltibia 33.0647
lfoot -5.33178 17.1506
ltoes 4.37511
2291
root 6.31191 11.7734 21.3997 88.3908 -8.86739 -10.2457
lowerback 6.01907 -10.2362 -2.87414
upperback -6.56146 -14.6878 -2.23277
thorax -10.249 -7.0979 1.32472
lowerneck -23.0802 5.12779 -9.75343
upperneck 10.8452 7.62043 15.6542
head 6.0251 4.78348 7.61286
rclavicle -9.54166e-014 -5.48646e-014
rhumerus 324.558 7.45851 349.762
rradius 136.526
rwrist -32.6538
rhand 15.4605 -5.56959
rfingers 7.12502
rthumb 40.285 -390.709
lclavicle -9.54166e-014 -5.48646e-014
lhumerus 40.5976 9.57691 -3.55149
lradius 26.2344
lwrist -1.61876
lhand -22.4169 -694.26
lfingers 7.12502
lthumb 4.00619 55.6821
rfemur -17.2906 8.90975 21.0854
rtibia 40.3685
rfoot 2.77613 0.856323
rtoes -6.97297
lfemur -14.3398 -6.11344 -23.7897
ltibia 33.0854
lfoot -4.6698 16.5013
ltoes 4.13782
2292
root 6.31578 11.7656 21.3966 88.561 -8.79753 -10.4409
lowerback 5.83839 -10.2375 -2.7636
upperback -6.58585 -14.6729 -2.21863
thorax -10.1941 -7.10446 1.25
lowerneck -23.0988 5.27547 -9.58711
upperneck 10.9272 7.74791 15.7921
head 6.03827 4.86577 7.64798
rclavicle -7.95139e-014 -5.1684e-014
rhumerus 325.798 5.77314 351.175
rradius 136.897
rwrist -32.9542
rhand 15.3951 -5.86582
rfingers 7.12502
rthumb 40.2235 -391.024
lclavicle -7.95139e-014 -5.1684e-014
lhumerus 39.862 9.10577 -3.43663
lradius 26.3618
lwrist -2.0755
lhand -22.941 -694.393
lfingers 7.12502
lthumb 3.50012 55.5577
rfemur -18.0461 8.92753 21.0998
rtibia 40.2315
rfoot 1.7775 0.551626
rtoes -7.3077
lfemur -14.2168 -5.34999 -23.8277
ltibia 33.1061
lfoot -3.94681 15.7755
ltoes 4.09304
2293
root 6.32077 11.7582 21.3915 88.5922 -8.73661 -10.5464
lowerback 5.80021 -10.2476 -2.6701
upperback -6.56797 -14.6756 -2.23221
thorax -10.1789 -7.11438 1.18192
lowerneck -23.1006 5.41508 -9.4709
upperneck 10.9922 7.87041 16.0039
head 6.03923 4.94992 7.71426
rclavicle 6.36111e-015 -2.38542e-014
rhumerus 327.006 4.01619 352.553
rradius 137.232
rwrist -33.2699
rhand 15.3787 -6.15397
rfingers 7.12502
rthumb 40.208 -391.317
lclavicle 6.36111e-015 -2.38542e-014
lhumerus 39.1422 8.62704 -3.30269
lradius 26.5476
lwrist -2.65242
lhand -23.4839 -694.515
lfingers 7.12502
lthumb 2.97576 55.444
rfemur -18.6483 8.84921 21.1181
rtibia 40.1036
rfoot 0.720385 0.180387
rtoes -7.51643
lfemur -13.9753 -4.57455 -23.8962
ltibia 33.1217
lfoot -3.16087 14.9582
ltoes 4.20144
2294
root 6.32416 11.751 21.3873 88.6143 -8.68155 -10.6358
lowerback 5.76834 -10.246 -2.59993
upperback -6.54077 -14.664 -2.25182
thorax -10.1529 -7.1159 1.11714
lowerneck -23.0939 5.54981 -9.38666
upperneck 11.0562 7.98921 16.2645
head 6.03564 5.03511 7.80158
rclavicle 1.08139e-013 2.38542e-015
rhumerus 328.19 2.19986 353.896
rradius 137.53
rwrist -33.6196
rhand 15.4152 -6.47115
rfingers 7.12502
rthumb 40.2423 -391.624
lclavicle 1.08139e-013 2.38542e-015
lhumerus 38.4245 8.12033 -3.1745
lradius 26.8052
lwrist -3.29036
lhand -24.0654 -694.634
lfingers 7.12502
lthumb 2.41416 55.3323
rfemur -19.2198 8.75578 21.1375
rtibia 39.9808
rfoot -0.342897 -0.253408
rtoes -7.62887
lfemur -13.7422 -3.70642 -23.9594
ltibia 33.1309
lfoot -2.34429 14.0465
ltoes 4.36745
2295
root 6.32601 11.7438 21.3839 88.6314 -8.61898 -10.7092
lowerback 5.73582 -10.2337 -2.53971
upperback -6.50655 -14.6371 -2.27117
thorax -10.116 -7.10947 1.05431
lowerneck -23.0799 5.6801 -9.32219
upperneck 11.1262 8.10374 16.5494
head 6.03134 5.11933 7.90003
rclavicle -9.22361e-014 -3.4191e-014
rhumerus 329.357 0.35508 355.198
rradius 137.794
rwrist -34.0022
rhand 15.4658 -6.83823
rfingers 7.12502
rthumb 40.2899 -391.976
lclavicle -9.22361e-014 -3.4191e-014
lhumerus 37.7014 7.58487 -3.04947
lradius 27.1515
lwrist -3.90315
lhand -24.6692 -694.777
lfingers 7.12502
lthumb 1.83106 55.1944
rfemur -19.7549 8.66647 21.1712
rtibia 39.8665
rfoot -1.3972 -0.743301
rtoes -7.67774
lfemur -13.5221 -2.76727 -24.002
ltibia 33.1293
lfoot -1.51723 13.084
ltoes 4.54818
2296
root 6.32651 11.7366 21.3812 88.6528 -8.54679 -10.7662
lowerback 5.69215 -10.2084 -2.48591
upperback -6.4701 -14.5917 -2.28637
thorax -10.0673 -7.09388 0.993662
lowerneck -23.0547 5.80467 -9.24776
upperneck 11.2038 8.20939 16.8057
head 6.03011 5.19651 7.9862
rclavicle -6.04305e-014 -4.69132e-014
rhumerus 330.513 -1.48392 356.466
rradius 138.017
rwrist -34.3965
rhand 15.4877 -7.25418
rfingers 7.12502
rthumb 40.3105 -392.386
lclavicle -6.04305e-014 -4.69132e-014
lhumerus 36.9728 7.01776 -2.91571
lradius 27.592
lwrist -4.47034
lhand -25.29 -694.973
lfingers 7.12502
lthumb 1.23145 55.003
rfemur -20.2528 8.59346 21.2172
rtibia 39.7609
rfoot -2.4204 -1.28094
rtoes -7.73459
lfemur -13.3193 -1.93786 -24.0331
ltibia 33.1158
lfoot -0.764888 12.2437
ltoes 4.77933
2297
root 6.32585 11.7294 21.3793 88.677 -8.46802 -10.8077
lowerback 5.64672 -10.1712 -2.4366
upperback -6.44292 -14.5309 -2.29803
thorax -10.0257 -7.07017 0.937511
lowerneck -22.9975 5.92653 -9.16373
upperneck 11.2832 8.30996 17.031
head 6.02636 5.2675 8.05785
rclavicle 6.36111e-014 3.26007e-014
rhumerus 331.664 -3.26535 357.692
rradius 138.19
rwrist -34.7746
rhand 15.4273 -7.68269
rfingers 7.12502
rthumb 40.2537 -392.832
lclavicle 6.36111e-014 3.26007e-014
lhumerus 36.2289 6.37946 -2.78927
lradius 28.139
lwrist -4.93559
lhand -25.9359 -695.22
lfingers 7.12502
lthumb 0.607646 54.7587
rfemur -20.7031 8.55101 21.2697
rtibia 39.6686
rfoot -3.38623 -1.84922
rtoes -7.85303
lfemur -13.1386 -1.25907 -24.0605
ltibia 33.096
lfoot -0.0899392 11.5797
ltoes 5.00371
2298
root 6.32422 11.7223 21.3781 88.7053 -8.37339 -10.8369
lowerback 5.596 -10.1221 -2.38091
upperback -6.42089 -14.4528 -2.30336
thorax -9.9866 -7.03826 0.881944
lowerneck -22.9126 6.04235 -9.07699
upperneck 11.3508 8.4043 17.2304
head 6.0162 5.33208 8.11724
rclavicle 1.33583e-013 4.05521e-014
rhumerus 332.81 -4.96881 358.862
rradius 138.313
rwrist -35.0816
rhand 15.2582 -8.10357
rfingers 7.12502
rthumb 40.0946 -393.301
lclavicle 1.33583e-013 4.05521e-014
lhumerus 35.4673 5.64059 -2.69733
lradius 28.797
lwrist -5.26087
lhand -26.6274 -695.482
lfingers 7.12502
lthumb -0.0602173 54.4974
rfemur -21.0982 8.55422 21.3358
rtibia 39.5912
rfoot -4.25931 -2.42868
rtoes -7.99511
lfemur -12.9923 -0.749793 -24.0763
ltibia 33.0787
lfoot 0.521712 11.1125
ltoes 5.16233
2299
root 6.32185 11.7155 21.377 88.7251 -8.2752 -10.855
lowerback 5.55174 -10.062 -2.31761
upperback -6.39558 -14.3596 -2.31719
thorax -9.95167 -6.99952 0.813103
lowerneck -22.8149 6.14993 -8.97844
upperneck 11.4023 8.48773 17.4061
head 6.00194 5.3891 8.16398
rclavicle 1.90833e-014 1.27222e-014
rhumerus 333.944 -6.58196 359.958
rradius 138.38
rwrist -35.293
rhand 14.9555 -8.48231
rfingers 7.12502
rthumb 39.8097 -393.765
lclavicle 1.90833e-014 1.27222e-014
lhumerus 34.6992 4.77738 -2.67322
lradius 29.5624
lwrist -5.4225
lhand -27.396 -695.726
lfingers 7.12502
lthumb -0.8026 54.2518
rfemur -21.4158 8.59416 21.4009
rtibia 39.5288
rfoot -5.00641 -2.97919
rtoes -8.1546
lfemur -12.8827 -0.360741 -24.0911
ltibia 33.0751
lfoot 1.10934 10.7873
ltoes 5.25426
2300
root 6.31901 11.709 21.3758 88.7276 -8.18078 -10.8608
lowerback 5.52179 -9.99009 -2.25557
upperback -6.35901 -14.2509 -2.3446
thorax -9.9157 -6.95312 0.730653
lowerneck -22.7138 6.24669 -8.85992
upperneck 11.4342 8.55491 17.5598
head 5.98521 5.43679 8.1974
rclavicle -7.31528e-014 -1.74931e-014
rhumerus 335.07 -8.10806 360.992
rradius 138.374
rwrist -35.4163
rhand 14.5061 -8.79713
rfingers 7.12502
rthumb 39.3865 -394.205
lclavicle -7.31528e-014 -1.74931e-014
lhumerus 33.944 3.77029 -2.73898
lradius 30.4146
lwrist -5.43536
lhand -28.2691 -695.928
lfingers 7.12502
lthumb -1.64578 54.045
rfemur -21.6417 8.6495 21.4559
rtibia 39.4801
rfoot -5.58258 -3.46079
rtoes -8.30886
lfemur -12.8193 -0.00842983 -24.1058
ltibia 33.0953
lfoot 1.71808 10.4992
ltoes 5.41437
2301
root 6.31596 11.703 21.3743 88.71 -8.07998 -10.859
lowerback 5.50513 -9.90319 -2.17663
upperback -6.30321 -14.1202 -2.39409
thorax -9.87581 -6.89763 0.615165
lowerneck -22.6132 6.32951 -8.70547
upperneck 11.4453 8.59603 17.6978
head 5.96849 5.47178 8.2167
rclavicle 6.99722e-014 -1.90833e-014
rhumerus 336.181 -9.55096 361.97
rradius 138.282
rwrist -35.4661
rhand 13.9082 -9.04122
rfingers 7.12502
rthumb 38.8229 -394.612
lclavicle 6.99722e-014 -1.90833e-014
lhumerus 33.24 2.64125 -2.88906
lradius 31.3298
lwrist -5.35013
lhand -29.2257 -696.089
lfingers 7.12502
lthumb -2.5697 53.8756
rfemur -21.7673 8.692 21.5117
rtibia 39.4421
rfoot -5.95118 -3.82993
rtoes -8.38103
lfemur -12.8117 0.338206 -24.1053
ltibia 33.1458
lfoot 2.35523 10.2128
ltoes 5.59108
2302
root 6.31305 11.6975 21.3724 88.6659 -7.98103 -10.845
lowerback 5.51301 -9.80317 -2.08843
upperback -6.2316 -13.9721 -2.46753
thorax -9.84073 -6.83431 0.471504
lowerneck -22.5306 6.39408 -8.51595
upperneck 11.4641 8.60188 17.8282
head 5.96453 5.49101 8.22709
rclavicle -1.90833e-014 -3.97569e-015
rhumerus 337.286 -10.9232 362.9
rradius 138.097
rwrist -35.4339
rhand 13.2634 -9.20602
rfingers 7.12502
rthumb 38.2146 -394.947
lclavicle -1.90833e-014 -3.97569e-015
lhumerus 32.5973 1.40682 -3.10474
lradius 32.2853
lwrist -5.2548
lhand -30.2371 -696.214
lfingers 7.12502
lthumb -3.54644 53.7363
rfemur -21.7873 8.67048 21.5598
rtibia 39.4142
rfoot -6.0789 -4.05353
rtoes -8.38803
lfemur -12.8585 0.667747 -24.1001
ltibia 33.2261
lfoot 2.98852 9.92978
ltoes 5.68062
2303
root 6.31053 11.6926 21.3703 88.5962 -7.86488 -10.821
lowerback 5.55094 -9.69178 -1.97395
upperback -6.1496 -13.8075 -2.55647
thorax -9.82118 -6.76416 0.301386
lowerneck -22.4552 6.43711 -8.30087
upperneck 11.4886 8.56934 17.9583
head 5.97071 5.49282 8.23163
rclavicle -9.85972e-014 -1.19271e-014
rhumerus 338.401 -12.2212 363.78
rradius 137.822
rwrist -35.3437
rhand 12.5983 -9.31158
rfingers 7.12502
rthumb 37.5864 -395.222
lclavicle -9.85972e-014 -1.19271e-014
lhumerus 32.0204 0.108803 -3.34719
lradius 33.2636
lwrist -5.2418
lhand -31.2445 -696.319
lfingers 7.12502
lthumb -4.51922 53.6129
rfemur -21.706 8.56647 21.6222
rtibia 39.3968
rfoot -5.95638 -4.13297
rtoes -8.33152
lfemur -12.9627 0.969694 -24.0688
ltibia 33.3301
lfoot 3.60266 9.65227
ltoes 5.74342
